<svg width="19" height="17" viewBox="0 0 19 17" fill="none" xmlns="http://www.w3.org/2000/svg">
<path d="M4.30707 17C4.21543 17 4.15434 17 4.0627 16.9703C3.81833 16.8813 3.6656 16.644 3.6656 16.377V13.7365H2.13826C0.946945 13.7365 0 12.7871 0 11.6597V5.36998C0 4.21291 0.977492 3.29319 2.13826 3.29319H4.27653V2.07679C4.27653 0.919721 5.25402 0 6.41479 0L16.8312 0.0296684C18.0225 0.0296684 18.9695 0.979058 18.9695 2.10646V8.36649C18.9695 9.52356 18.0225 10.4433 16.8312 10.4433V13.0838C16.8312 13.3508 16.6785 13.5881 16.4341 13.6771C16.373 13.7068 16.2814 13.7068 16.1897 13.7068C16.0064 13.7068 15.8232 13.6178 15.701 13.4991L14.5707 12.2827C14.2653 13.0838 13.4711 13.6771 12.5547 13.6771L7.63666 13.7365L4.76527 16.7923C4.67363 16.911 4.49035 17 4.30707 17ZM4.91801 4.53927H2.13826C1.64952 4.53927 1.28296 4.92496 1.28296 5.36998V11.63C1.28296 12.1047 1.68006 12.4607 2.13826 12.4607H4.30707C4.67363 12.4607 4.94855 12.7277 4.94855 13.0838V14.7452L6.87299 12.6684C6.99518 12.5497 7.17846 12.4607 7.33119 12.4607H12.5852C13.074 12.4607 13.4405 12.075 13.4405 11.63V5.34031C13.4405 4.86562 13.0434 4.5096 12.5852 4.5096L4.91801 4.53927V4.21291V4.53927ZM15.5788 11.4817V9.82024C15.5788 9.46422 15.8537 9.19721 16.2203 9.19721H16.8617C17.3505 9.19721 17.717 8.81152 17.717 8.36649V2.10646C17.717 1.63176 17.3199 1.27574 16.8617 1.27574L6.41479 1.24607C5.92605 1.24607 5.55949 1.63176 5.55949 2.07679V3.26353H12.5852C13.7765 3.26353 14.7235 4.21291 14.7235 5.34031V10.562L15.5788 11.4817Z" fill="#3950A0"/>
</svg>
